<svg xmlns="http://www.w3.org/2000/svg" width="1600" height="980" viewBox="0 0 1600 980" role="img" aria-labelledby="title desc">
  <title id="title">UI-PROP-0012 v0.1 市场模型方法与证据带</title>
  <desc id="desc">桌面与窄屏示意，展示现有市场页面中的模型身份、周期、证据、原始结构切换和回退状态。</desc>
  <rect width="1600" height="980" fill="#F2F4F3"/>
  <style>
    .t{font-family:"Noto Sans SC","Microsoft YaHei",sans-serif;fill:#172129}
    .m{font-family:"IBM Plex Mono","Consolas",monospace;fill:#68747C}
    .s{font-size:14px}.b{font-size:18px;font-weight:700}.h{font-size:25px;font-weight:700}
    .muted{fill:#68747C}.blue{fill:#2E5E84}.amber{fill:#B47A22}.white{fill:#FFFFFF}
    .line{stroke:#D7DDDA;stroke-width:1}.dash{stroke:#B47A22;stroke-width:2;stroke-dasharray:6 5}
  </style>

  <text x="56" y="52" class="t h">市场模型方法与证据带 · v0.1</text>
  <text x="56" y="78" class="t s muted">不增加导航和页面；在现有工作面解释“当前方法—预测周期—证据—回退”</text>

  <rect x="56" y="108" width="1060" height="792" rx="10" class="white"/>
  <rect x="56" y="108" width="1060" height="52" rx="10" fill="#172129"/>
  <text x="80" y="141" class="t s white">今日</text>
  <text x="146" y="141" class="t s white" font-weight="700">市场</text>
  <text x="218" y="141" class="t s white">策略竞技场</text>
  <text x="322" y="141" class="t s white">组合</text>
  <text x="382" y="141" class="t s white">系统</text>
  <text x="853" y="141" class="m s white">数据 15:20 完整 · 只读研究</text>

  <rect x="56" y="160" width="1060" height="44" fill="#FAFBFA"/>
  <text x="80" y="187" class="t s muted">大盘</text>
  <text x="138" y="187" class="t s muted">个股观察</text>
  <text x="232" y="187" class="t s blue" font-weight="700">行业</text>
  <text x="288" y="187" class="t s muted">ETF 轮动</text>
  <line x1="224" y1="203" x2="274" y2="203" stroke="#2E5E84" stroke-width="3"/>

  <text x="80" y="243" class="t h">行业热力</text>
  <text x="80" y="270" class="m s">2026-07-28 · snapshot:sha256:… · 研究观察，不是买卖信号</text>

  <rect x="80" y="292" width="1012" height="88" rx="6" fill="#F8FAF9" stroke="#CBD4D0"/>
  <rect x="96" y="309" width="244" height="54" rx="4" fill="#FFFFFF" stroke="#D7DDDA"/>
  <circle cx="116" cy="328" r="6" fill="#B47A22"/>
  <text x="130" y="333" class="t b">Heat GBDT v2</text>
  <text x="112" y="354" class="t s amber">未完成封存验证</text>

  <text x="370" y="318" class="t s muted">预测周期</text>
  <rect x="370" y="327" width="62" height="32" rx="4" fill="#2E5E84"/>
  <text x="391" y="348" class="t s white">1 日</text>
  <rect x="438" y="327" width="62" height="32" rx="4" fill="#FFFFFF" stroke="#CBD4D0"/>
  <text x="459" y="348" class="t s">5 日</text>
  <rect x="506" y="327" width="92" height="32" rx="4" fill="#FFFFFF" stroke="#CBD4D0"/>
  <text x="522" y="348" class="t s">原始结构</text>

  <text x="630" y="318" class="t s muted">证据</text>
  <text x="630" y="342" class="t s">正确性通过 · OOS 待完成</text>
  <text x="630" y="361" class="m s">train≤2022 · data≤2026-07-28</text>
  <rect x="956" y="318" width="116" height="36" rx="4" fill="#FFFFFF" stroke="#2E5E84"/>
  <text x="981" y="341" class="t s blue">查看方法</text>

  <rect x="80" y="402" width="682" height="360" fill="#FBFCFB" stroke="#D7DDDA"/>
  <text x="100" y="430" class="t b">未来 1 日行业相对收益预测</text>
  <text x="650" y="430" class="m s">基准 000985.CSI</text>
  <rect x="104" y="462" width="144" height="78" fill="#F2D8D4"/>
  <text x="120" y="489" class="t b">电子</text><text x="120" y="519" class="m">+0.82 z · ↑</text>
  <rect x="258" y="462" width="144" height="78" fill="#E4E9E7"/>
  <text x="274" y="489" class="t b">银行</text><text x="274" y="519" class="m">+0.08 z · →</text>
  <rect x="412" y="462" width="144" height="78" fill="#D6E8E1"/>
  <text x="428" y="489" class="t b">煤炭</text><text x="428" y="519" class="m">−0.64 z · ↓</text>
  <rect x="566" y="462" width="172" height="78" fill="#F1E2C9"/>
  <text x="582" y="489" class="t b">医药生物</text><text x="582" y="519" class="m">blocked · 覆盖</text>
  <line x1="104" y1="574" x2="738" y2="574" class="line"/>
  <text x="104" y="608" class="t s muted">原始证据仍可见</text>
  <text x="104" y="640" class="m s">广度 +12.4pp　成交额 +8.1%　波动 21.2%　覆盖 96%</text>
  <text x="104" y="682" class="t s amber">模型结果是研究排序，不是资金流或买卖信号</text>

  <rect x="782" y="402" width="310" height="360" fill="#FFFFFF" stroke="#D7DDDA"/>
  <text x="804" y="432" class="t b">电子 · 证据</text>
  <text x="804" y="468" class="t s muted">模型预测</text>
  <text x="804" y="493" class="m">1D +0.82 z　5D +0.51 z</text>
  <line x1="804" y1="512" x2="1068" y2="512" class="line"/>
  <text x="804" y="545" class="t s muted">原始结构</text>
  <text x="804" y="570" class="m">收益 +1.8%　广度 68%</text>
  <text x="804" y="595" class="m">成交额 +8.1%　覆盖 96%</text>
  <line x1="804" y1="618" x2="1068" y2="618" class="line"/>
  <text x="804" y="650" class="t s muted">限制</text>
  <text x="804" y="675" class="t s amber">未完成 2023—2025 封存证据</text>
  <text x="804" y="704" class="m s">model:sha256:…</text>
  <text x="804" y="727" class="m s">feature:sha256:…</text>

  <rect x="80" y="786" width="1012" height="82" rx="5" fill="#F5F2EC" stroke="#B47A22"/>
  <text x="100" y="816" class="t b">回退状态示例</text>
  <text x="100" y="844" class="t s">v2 输入快照不兼容，当前显示 lifecycle-structure-v1.0.0；历史 v2 记录未改写。</text>

  <rect x="1150" y="108" width="394" height="792" rx="22" fill="#FFFFFF" stroke="#CBD4D0"/>
  <text x="1178" y="148" class="t b">窄屏 390 × 844</text>
  <rect x="1172" y="170" width="350" height="46" rx="5" fill="#172129"/>
  <text x="1190" y="199" class="t s white">今日　市场　策略　组合　系统</text>
  <text x="1182" y="252" class="t h">相对轮动</text>
  <text x="1182" y="276" class="m s">2026-07-28 · 只读研究</text>
  <rect x="1182" y="296" width="330" height="122" rx="6" fill="#F8FAF9" stroke="#CBD4D0"/>
  <circle cx="1200" cy="319" r="6" fill="#B47A22"/>
  <text x="1214" y="324" class="t b">Rotation GBDT v2</text>
  <text x="1198" y="348" class="t s amber">未完成封存验证</text>
  <rect x="1198" y="368" width="70" height="32" rx="4" fill="#2E5E84"/>
  <text x="1216" y="389" class="t s white">模型</text>
  <rect x="1274" y="368" width="90" height="32" rx="4" fill="#FFFFFF" stroke="#CBD4D0"/>
  <text x="1287" y="389" class="t s">原始结构</text>
  <text x="1380" y="389" class="m s">5D / 20D</text>
  <rect x="1182" y="438" width="330" height="276" fill="#FBFCFB" stroke="#D7DDDA"/>
  <line x1="1347" y1="458" x2="1347" y2="694" class="line"/>
  <line x1="1202" y1="576" x2="1492" y2="576" class="line"/>
  <path d="M1240 620 C1270 600,1290 560,1324 540" fill="none" stroke="#2E5E84" stroke-width="3"/>
  <circle cx="1324" cy="540" r="10" fill="#2E5E84"/>
  <text x="1338" y="536" class="t s">电子</text>
  <path d="M1438 520 C1410 548,1380 590,1360 628" fill="none" class="dash"/>
  <circle cx="1360" cy="628" r="10" fill="#FFFFFF" stroke="#B47A22" stroke-width="3"/>
  <text x="1374" y="650" class="t s amber">ETF 门禁阻断</text>
  <rect x="1182" y="730" width="330" height="132" rx="5" fill="#F5F2EC" stroke="#B47A22"/>
  <text x="1198" y="758" class="t b">证据优先</text>
  <text x="1198" y="786" class="t s">模型身份与回退状态先于周期控件。</text>
  <text x="1198" y="814" class="t s">截止时间、原始证据、只读边界不隐藏。</text>
  <text x="1198" y="842" class="m s">model-status: fallback_v1</text>
</svg>
